{
    "asset" : {
        "generator" : "Khronos glTF Blender I/O v1.3.48",
        "version" : "2.0"
    },
    "scene" : 0,
    "scenes" : [
        {
            "name" : "Scene",
            "nodes" : [
                1
            ]
        }
    ],
    "nodes" : [
        {
            "mesh" : 0,
            "name" : "LOD3spShape",
            "scale" : [
                0.6000000238418579,
                0.6000000238418579,
                0.6000000238418579
            ],
            "translation" : [
                0,
                0,
                -10
            ]
        },
        {
            "children" : [
                0
            ],
            "name" : "Node_0",
            "scale" : [
                0.000699999975040555,
                0.000699999975040555,
                0.000699999975040555
            ]
        }
    ],
    "materials" : [
        {
            "emissiveFactor" : [
                0,
                0,
                0
            ],
            "name" : "blinn3-fx",
            "pbrMetallicRoughness" : {
                "baseColorTexture" : {
                    "index" : 0,
                    "texCoord" : 0
                },
                "metallicFactor" : 0,
                "roughnessFactor" : 1
            }
        }
    ],
    "meshes" : [
        {
            "name" : "LOD3spShape",
            "primitives" : [
                {
                    "attributes" : {
                        "POSITION" : 0,
                        "NORMAL" : 1,
                        "TEXCOORD_0" : 2
                    },
                    "indices" : 3,
                    "material" : 0
                }
            ]
        }
    ],
    "textures" : [
        {
            "source" : 0
        }
    ],
    "images" : [
        {
            "mimeType" : "image/png",
            "name" : "DuckCM",
            "uri" : "DuckCM.png"
        }
    ],
    "accessors" : [
        {
            "bufferView" : 0,
            "componentType" : 5126,
            "count" : 2399,
            "max" : [
                96.17990112304688,
                61.32819747924805,
                163.97000122070312
            ],
            "min" : [
                -69.29850006103516,
                -53.92519760131836,
                9.929369926452637
            ],
            "type" : "VEC3"
        },
        {
            "bufferView" : 1,
            "componentType" : 5126,
            "count" : 2399,
            "type" : "VEC3"
        },
        {
            "bufferView" : 2,
            "componentType" : 5126,
            "count" : 2399,
            "type" : "VEC2"
        },
        {
            "bufferView" : 3,
            "componentType" : 5123,
            "count" : 12636,
            "type" : "SCALAR"
        }
    ],
    "bufferViews" : [
        {
            "buffer" : 0,
            "byteLength" : 28788,
            "byteOffset" : 0
        },
        {
            "buffer" : 0,
            "byteLength" : 28788,
            "byteOffset" : 28788
        },
        {
            "buffer" : 0,
            "byteLength" : 19192,
            "byteOffset" : 57576
        },
        {
            "buffer" : 0,
            "byteLength" : 25272,
            "byteOffset" : 76768
        }
    ],
    "buffers" : [
        {
            "byteLength" : 102040,
            "uri" : "main.bin"
        }
    ]
}
